<svg xmlns="http://www.w3.org/2000/svg" xmlns:xlink="http://www.w3.org/1999/xlink" xmlns:inkscape="http://www.inkscape.org/namespaces/inkscape" version="1.1" width="232.125" height="61" viewBox="0 0 232.125 61">
<defs>
<clipPath id="clip_1">
<path transform="matrix(1,0,0,-1,-104.5,92.386)" d="M104.5 31.386002H336.625V92.386H104.5Z" clip-rule="evenodd"/>
</clipPath>
<clipPath id="clip_2">
<path transform="matrix(1,0,0,-1,-104.5,92.386)" d="M0 114.386H440.217V0H0Z"/>
</clipPath>
<path id="font_3_1327" d="M.044921876 .6269531V.72265627H.56933596V.6269531H.34960938L.58984377 .057617189 .4951172 .016601563 .31054688 .46191407 .12890625 .009765625 .03125 .05078125 .27246095 .6269531H.044921876M.7109375 .7763672H.81933596V-.09472656H.7109375V.7763672Z"/>
<path id="font_3_1044" d="M.3173828 .78125 .5917969 .3623047 .50390627 .30566407 .3173828 .59472659 .13183594 .29882813 .041992189 .35546876 .3173828 .78125M.7109375 .7763672H.81933596V.28710938H.7109375V.7763672M.123046878 .23535156H.81933596V-.08691406H.7109375V.13964844H.123046878V.23535156Z"/>
<path id="font_3_1232" d="M.046875 .6269531V.72265627H.47265626V.6269531H.296875L.4921875 .043945314 .40039063 .016601563 .2626953 .43554688 .12597656 .009765625 .03125 .037109376 .22753906 .6269531H.046875M.73339846 .7763672H.83691409V-.09472656H.73339846V.31445313H.6328125V-.08984375H.53222659V.7753906H.6328125V.4140625H.73339846V.7763672Z"/>
<path id="font_3_898" d="M.29296876 .78125 .5605469 .33496095 .47265626 .28222657 .29296876 .59277346 .115234378 .27539063 .025390625 .328125 .29296876 .78125M.76171877 .21875H.6542969V.7763672H.76171877V.57128909H.88671877V.46484376H.76171877V.21875M.19824219 .21386719V.018554688H.7841797V-.07714844H.08984375V.21386719H.19824219Z"/>
<path id="font_3_1363" d="M.2548828 .6845703V.77734377H.37109376V.6845703H.57910159V.5917969H.35839845L.5966797 .056640626 .50683596 .016601563 .31347657 .4580078 .12109375 .009765625 .029296875 .05078125 .26757813 .5917969H.038085939V.6845703H.2548828M.7109375 .33398438H.54296877V.43066407H.7109375V.7763672H.81933596V-.09472656H.7109375V.33398438Z"/>
<path id="font_4_48" d="M.7519531 .6972656V.016601563H.6425781V.5644531L.46484376 .016601563H.359375L.18164063 .5644531V.016601563H.072265628V.6972656H.24023438L.41210938 .16699219 .5839844 .6972656H.7519531Z"/>
<path id="font_4_76" d="M.07128906 .016601563V.5058594H.18261719V.016601563H.07128906M.19726563 .6582031C.19726563 .63997396 .19026692 .62386068 .17626953 .6098633 .16227214 .5958659 .14550781 .5888672 .12597656 .5888672 .10644531 .5888672 .08968099 .5958659 .075683597 .6098633 .0616862 .62386068 .0546875 .63997396 .0546875 .6582031 .0546875 .6777344 .0616862 .6944987 .075683597 .7084961 .08968099 .72249349 .10644531 .7294922 .12597656 .7294922 .14550781 .7294922 .16227214 .72249349 .17626953 .7084961 .19026692 .6944987 .19726563 .6777344 .19726563 .6582031Z"/>
<path id="font_4_81" d="M.17871094 .2626953V.016601563H.068359378V.5058594H.17480469V.4404297C.18782552 .46321617 .20670574 .48177085 .23144531 .49609376 .2561849 .5104167 .2828776 .5175781 .31152345 .5175781 .36946617 .5175781 .41585288 .49788413 .4506836 .4584961 .4855143 .41910807 .5029297 .36653648 .5029297 .30078126V.016601563H.39160157V.27246095C.39160157 .32454429 .38313804 .3631185 .36621095 .3881836 .34928385 .4132487 .3232422 .42578126 .28808595 .42578126 .26985679 .42578126 .25211589 .41975913 .23486328 .40771485 .21761067 .39567057 .20442708 .37923179 .1953125 .35839845 .1842448 .3343099 .17871094 .30240885 .17871094 .2626953Z"/>
<path id="font_4_86" d="M.0234375 .107421878 .09277344 .17871094C.11230469 .15201824 .13378906 .13118489 .15722656 .11621094 .18001302 .10253906 .20442708 .095703128 .23046875 .095703128 .25520835 .095703128 .27620445 .100748699 .29345704 .110839847 .31070964 .12093099 .31933595 .13444011 .31933595 .15136719 .31933595 .16829427 .31103517 .18147786 .2944336 .19091797 .27783204 .20035808 .25813804 .20930989 .23535156 .21777344 .20865886 .22623699 .18131511 .23567708 .15332031 .24609375 .1155599 .25976563 .087890628 .27734376 .0703125 .29882813 .052734376 .3203125 .043945314 .34472657 .043945314 .3720703 .043945314 .4124349 .06282552 .44677735 .10058594 .47509767 .13834636 .50341799 .1829427 .5175781 .234375 .5175781 .2890625 .5175781 .33365885 .5045573 .36816407 .47851563 .3857422 .46484376 .3997396 .44791667 .41015626 .42773438L.34179688 .36132813C.33268229 .37695313 .3219401 .38964845 .3095703 .39941407 .28808595 .41829429 .26106773 .42773438 .22851563 .42773438 .20963542 .42773438 .19319661 .4230143 .17919922 .41357423 .16520183 .40413413 .15820313 .39290367 .15820313 .3798828 .15820313 .3655599 .16601563 .35351563 .18164063 .34375 .19726563 .33398438 .22037761 .32454429 .25097657 .3154297 .26204429 .31217448 .2747396 .30826823 .2890625 .30371095 .33658854 .28808595 .3725586 .26790367 .39697267 .24316406 .42138673 .21842449 .43359376 .18880208 .43359376 .15429688 .43359376 .11393229 .4140625 .078938808 .375 .049316408 .3359375 .01969401 .2861328 .0048828127 .22558594 .0048828127 .17480469 .0048828127 .12988281 .016601563 .09082031 .040039064 .06477865 .055664064 .042317708 .078125 .0234375 .107421878Z"/>
<path id="font_4_87" d="M.2109375 .66308596V.5058594H.3173828V.41601563H.2109375V.16699219C.2109375 .14355469 .21663411 .1274414 .22802735 .118652347 .23942058 .10986328 .25553385 .10546875 .2763672 .10546875H.3173828V.016601563H.25C.19726563 .016601563 .15885417 .028320313 .13476563 .051757814 .110677089 .07519531 .09863281 .11002604 .09863281 .15625V.41601563H.0146484379V.5058594H.09863281V.66308596H.2109375Z"/>
<path id="font_4_85" d="M.068359378 .016601563V.5058594H.17285156V.4326172C.18912761 .45670573 .20898438 .4752604 .23242188 .48828126 .26041667 .5052083 .29329429 .5136719 .3310547 .5136719H.3388672V.4140625H.32714845C.28092448 .4140625 .24414063 .4000651 .21679688 .3720703 .19140625 .34472657 .17871094 .30208335 .17871094 .24414063V.016601563H.068359378Z"/>
<path id="font_4_92" d="M.1953125 .03515625 .0029296876 .5058594H.11816406L.25097657 .171875 .3828125 .5058594H.4970703L.22460938-.17382813H.111328128L.1953125 .03515625Z"/>
<path id="font_4_3" d=""/>
<path id="font_4_82" d="M.29296876 .0048828127C.22135417 .0048828127 .16031902 .029459635 .10986328 .07861328 .05940755 .12776692 .034179689 .18847656 .034179689 .2607422 .034179689 .3330078 .05940755 .39388023 .10986328 .44335938 .16031902 .49283854 .22135417 .5175781 .29296876 .5175781 .36523438 .5175781 .42643229 .49283854 .4765625 .44335938 .5266927 .39388023 .5517578 .3330078 .5517578 .2607422 .5517578 .18847656 .5266927 .12776692 .4765625 .07861328 .42643229 .029459635 .36523438 .0048828127 .29296876 .0048828127M.29296876 .09667969C.33333335 .09667969 .3680013 .11214193 .39697267 .1430664 .425944 .17399089 .4404297 .21321614 .4404297 .2607422 .4404297 .3076172 .425944 .34684245 .39697267 .37841798 .3680013 .4099935 .33333335 .42578126 .29296876 .42578126 .25325523 .42578126 .21891277 .4099935 .1899414 .37841798 .16097005 .34684245 .14648438 .3076172 .14648438 .2607422 .14648438 .21321614 .16097005 .17399089 .1899414 .1430664 .21891277 .11214193 .25325523 .09667969 .29296876 .09667969Z"/>
<path id="font_4_73" d="M.09863281 .6035156C.09863281 .64973959 .11149088 .6845703 .13720703 .7080078 .16292317 .7314453 .20214844 .74316409 .2548828 .74316409H.30859376V.6542969H.2763672C.25553385 .6542969 .23942058 .64990237 .22802735 .6411133 .21663411 .6323242 .2109375 .61621096 .2109375 .59277346V.5058594H.30859376V.41601563H.2109375V.016601563H.09863281V.41601563H.0146484379V.5058594H.09863281V.6035156Z"/>
<path id="font_4_44" d="M.072265628 .016601563V.6972656H.18652344V.016601563H.072265628Z"/>
<path id="font_4_72" d="M.1484375 .2998047H.41992188C.41861979 .33170573 .40527345 .36083985 .3798828 .38720704 .3544922 .41357423 .32226563 .4267578 .28320313 .4267578 .24283855 .4267578 .20963542 .4124349 .18359375 .38378907 .16471355 .3623047 .1529948 .3343099 .1484375 .2998047M.15039063 .21191406C.15690105 .18196614 .17089844 .15755208 .19238281 .13867188 .22363281 .11002604 .26497398 .095703128 .31640626 .095703128 .37044273 .095703128 .42089845 .1155599 .46777345 .15527344L.50097659 .07324219C.4482422 .027669272 .3857422 .0048828127 .31347657 .0048828127 .23079427 .0048828127 .16357422 .028320313 .111816409 .07519531 .060058595 .12207031 .034179689 .18359375 .034179689 .25976563 .034179689 .3346354 .057128908 .39632163 .103027347 .44482423 .14892578 .4933268 .20898438 .5175781 .28320313 .5175781 .35611979 .5175781 .41585288 .4934896 .46240235 .4453125 .50895187 .3971354 .53222659 .3375651 .53222659 .26660157 .53222659 .24707031 .53059896 .22884114 .52734377 .21191406H.15039063Z"/>
<path id="font_4_79" d="M.068359378 .016601563V.7421875H.17871094V.016601563H.068359378Z"/>
<path id="font_4_70" d="M.034179689 .2607422C.034179689 .3310547 .060709638 .3914388 .11376953 .44189454 .16682942 .49235026 .23404949 .5175781 .3154297 .5175781 .37923179 .5175781 .4391276 .4970703 .4951172 .4560547L.45898438 .36914063C.41015626 .40690104 .3623047 .42578126 .3154297 .42578126 .26529948 .42578126 .22460938 .40983073 .19335938 .3779297 .16210938 .34602867 .14648438 .30696617 .14648438 .2607422 .14648438 .21451824 .16210938 .17561849 .19335938 .14404297 .22460938 .112467449 .26529948 .09667969 .3154297 .09667969 .36295573 .09667969 .41145835 .115234378 .4609375 .15234375L.4970703 .06542969C.44303385 .025065104 .38248698 .0048828127 .3154297 .0048828127 .23404949 .0048828127 .16682942 .029947916 .11376953 .080078128 .060709638 .13020833 .034179689 .19042969 .034179689 .2607422Z"/>
<path id="font_4_88" d="M.39160157 .25976563V.5058594H.5029297V.016601563H.39648438V.08105469C.3828125 .056966146 .36458335 .03873698 .34179688 .026367188 .31510417 .0120442709 .2874349 .0048828127 .25878907 .0048828127 .20149739 .0048828127 .1554362 .024414063 .12060547 .06347656 .08577474 .10253906 .068359378 .15527344 .068359378 .22167969V.5058594H.17871094V.24902344C.17871094 .19759114 .18733724 .15934246 .20458985 .13427735 .22184246 .10921224 .24804688 .09667969 .28320313 .09667969 .30078126 .09667969 .31835938 .10270182 .3359375 .114746097 .35351563 .12679036 .36686198 .14290364 .37597657 .16308594 .38639323 .18717449 .39160157 .21940105 .39160157 .25976563Z"/>
<path id="font_4_68" d="M.27929688 .33203126C.31640626 .33203126 .35481773 .33203126 .39453126 .33203126 .39453126 .36393229 .38216148 .38785807 .35742188 .4038086 .33268229 .41975913 .296875 .42773438 .25 .42773438H.24707031C.20279949 .42773438 .15592449 .41731773 .10644531 .39648438L.078125 .48339845C.1295573 .5055339 .18619792 .51692709 .24804688 .5175781H.25C.33203126 .5175781 .39501954 .50179037 .43896485 .47021485 .48291017 .4386393 .5048828 .38834635 .5048828 .31933595V.016601563H.39941407V.0703125C.37858073 .049479169 .35302735 .033365888 .3227539 .021972657 .29248048 .010579427 .26171876 .0048828127 .23046875 .0048828127 .171875 .0048828127 .12451172 .020345053 .088378909 .05126953 .052246095 .08219401 .034179689 .12011719 .034179689 .16503906 .034179689 .21516927 .056640626 .2565104 .1015625 .2890625 .14322917 .31770835 .20247396 .33203126 .27929688 .33203126M.24902344 .09277344C.27766929 .09277344 .3059896 .09977213 .33398438 .11376953 .36197917 .12776692 .38216148 .1438802 .39453126 .16210938V.24511719C.3580729 .24511719 .3251953 .24511719 .29589845 .24511719 .23990886 .24511719 .20084636 .23795574 .17871094 .22363281 .15722656 .20735677 .14648438 .18782552 .14648438 .16503906 .14648438 .14420574 .15559896 .12695313 .17382813 .11328125 .1920573 .099609378 .21712239 .09277344 .24902344 .09277344Z"/>
<path id="font_4_51" d="M.4326172 .4814453C.4326172 .51920577 .41975913 .5488281 .39404298 .5703125 .3683268 .5917969 .32584635 .60253909 .26660157 .60253909H.18554688V.36035157H.26660157C.32584635 .36035157 .3683268 .3712565 .39404298 .3930664 .41975913 .4148763 .4326172 .44433595 .4326172 .4814453M.54785159 .4814453C.54785159 .41829429 .5257161 .36653648 .4814453 .32617188 .43717448 .28580729 .37402345 .265625 .2919922 .265625H.18554688V.016601563H.072265628V.6972656H.2919922C.37402345 .6972656 .43717448 .6770833 .4814453 .63671877 .5257161 .5963542 .54785159 .5445964 .54785159 .4814453Z"/>
<path id="font_4_83" d="M.1796875 .22949219C.18359375 .19303386 .19726563 .16243489 .22070313 .13769531 .2467448 .11035156 .27929688 .09667969 .31835938 .09667969 .3606771 .09667969 .3943685 .11214193 .4194336 .1430664 .4444987 .17399089 .45703126 .21321614 .45703126 .2607422 .45703126 .3076172 .4444987 .34684245 .4194336 .37841798 .3943685 .4099935 .3606771 .42578126 .31835938 .42578126 .27929688 .42578126 .2467448 .41210938 .22070313 .38476563 .19726563 .36002604 .18359375 .32910157 .1796875 .2919922 .17773438 .2718099 .17773438 .25097657 .1796875 .22949219M.32910157 .0048828127C.26920573 .0048828127 .21907552 .027994791 .17871094 .07421875V-.17382813H.068359378V.5058594H.17480469V.44335938C.21712239 .49283854 .2685547 .5175781 .32910157 .5175781 .4000651 .5175781 .45784507 .49202476 .5024414 .44091798 .5470378 .3898112 .56933596 .3297526 .56933596 .2607422 .56933596 .19173177 .5470378 .13183594 .5024414 .08105469 .45784507 .030273438 .4000651 .0048828127 .32910157 .0048828127Z"/>
</defs>
<g clip-path="url(#clip_1)">
<g inkscape:groupmode="layer" inkscape:label="Layer 1">
<g clip-path="url(#clip_2)">
<path transform="matrix(1,0,0,-1,62.397996,31.359704)" d="M0 0C0-17.135-13.893-31.025-31.025-31.025-48.161-31.025-62.052-17.135-62.052 0-62.052 17.133-48.161 31.023-31.025 31.023-13.893 31.023 0 17.133 0 0" fill="#ffffff"/>
<path transform="matrix(1,0,0,-1,45.935106,29.197602)" d="M0 0C-4.937 3.355-11.255 1.988-14.576-3.055-17.339-7.27-21.521-7.795-23.132-7.795-28.417-7.795-32.021-4.08-33.093-.24H-33.097C-33.108-.197-33.117-.162-33.127-.131-33.138-.088-33.146-.043-33.159 0-33.579 1.605-33.687 2.367-33.687 4.07-33.687 13.254-24.261 23.48-10.694 23.48 3.204 23.48 11.156 12.9 13.211 7.02 13.171 7.127 13.137 7.229 13.104 7.332 9.161 18.832-1.743 27.098-14.591 27.098-30.741 27.098-43.845 14.002-43.845-2.162-43.845-16.607-33.427-28.971-18.97-28.971-7.447-28.971 .303-22.512 3.852-13.602 5.801-8.73 4.424-3.006 0 0" fill="#023863"/>
<path transform="matrix(1,0,0,-1,59.327699,22.748299)" d="M0 0C-1.716 5.736-9.721 17.031-24.087 17.031-37.653 17.031-47.079 6.803-47.079-2.379-47.079-4.082-46.972-4.844-46.552-6.449-46.73-5.746-46.819-5.047-46.819-4.361-46.819 5.203-37.245 11.826-27.403 11.826-14.074 11.826-3.272 1.025-3.272-12.297-3.272-22.74-9.284-31.785-18.014-36.127V-36.133C-6.755-32.057 1.283-21.274 1.283-8.611 1.283-5.613 .881-2.971 0 0" fill="#e4042e"/>
</g>
<use data-text="&#xc9c0;" xlink:href="#font_3_1327" transform="matrix(27.0501,0,0,-27.0501,74.2339,31.279603)" fill="#575756"/>
<use data-text="&#xc2dd;" xlink:href="#font_3_1044" transform="matrix(27.0501,0,0,-27.0501,98.903598,31.279603)" fill="#575756"/>
<use data-text="&#xc7ac;" xlink:href="#font_3_1232" transform="matrix(27.0501,0,0,-27.0501,123.57329,31.279603)" fill="#575756"/>
<use data-text="&#xc0b0;" xlink:href="#font_3_898" transform="matrix(27.0501,0,0,-27.0501,148.24298,31.279603)" fill="#575756"/>
<use data-text="&#xcc98;" xlink:href="#font_3_1363" transform="matrix(27.0501,0,0,-27.0501,172.91266,31.279603)" fill="#575756"/>
<use data-text="M" xlink:href="#font_4_48" transform="matrix(10.9058,0,0,-10.9058,74.44679,50.926004)" fill="#575756"/>
<use data-text="i" xlink:href="#font_4_76" transform="matrix(10.9058,0,0,-10.9058,83.37865,50.926004)" fill="#575756"/>
<use data-text="n" xlink:href="#font_4_81" transform="matrix(10.9058,0,0,-10.9058,86.13782,50.926004)" fill="#575756"/>
<use data-text="i" xlink:href="#font_4_76" transform="matrix(10.9058,0,0,-10.9058,92.3105,50.926004)" fill="#575756"/>
<use data-text="s" xlink:href="#font_4_86" transform="matrix(10.9058,0,0,-10.9058,95.06967,50.926004)" fill="#575756"/>
<use data-text="t" xlink:href="#font_4_87" transform="matrix(10.9058,0,0,-10.9058,100.04271,50.926004)" fill="#575756"/>
<use data-text="r" xlink:href="#font_4_85" transform="matrix(10.9058,0,0,-10.9058,103.80521,50.926004)" fill="#575756"/>
<use data-text="y" xlink:href="#font_4_92" transform="matrix(10.9058,0,0,-10.9058,107.947238,50.926004)" fill="#575756"/>
<use data-text=" " xlink:href="#font_4_3" transform="matrix(10.9058,0,0,-10.9058,113.04678,50.926004)" fill="#575756"/>
<use data-text="o" xlink:href="#font_4_82" transform="matrix(10.9058,0,0,-10.9058,116.16693,50.926004)" fill="#575756"/>
<use data-text="f" xlink:href="#font_4_73" transform="matrix(10.9058,0,0,-10.9058,122.459568,50.926004)" fill="#575756"/>
<use data-text=" " xlink:href="#font_4_3" transform="matrix(10.9058,0,0,-10.9058,126.1021,50.926004)" fill="#575756"/>
<use data-text="I" xlink:href="#font_4_44" transform="matrix(10.9058,0,0,-10.9058,129.3193,50.926004)" fill="#575756"/>
<use data-text="n" xlink:href="#font_4_81" transform="matrix(10.9058,0,0,-10.9058,132.133,50.926004)" fill="#575756"/>
<use data-text="t" xlink:href="#font_4_87" transform="matrix(10.9058,0,0,-10.9058,138.19116,50.926004)" fill="#575756"/>
<use data-text="e" xlink:href="#font_4_72" transform="matrix(10.9058,0,0,-10.9058,141.95366,50.926004)" fill="#575756"/>
<use data-text="l" xlink:href="#font_4_79" transform="matrix(10.9058,0,0,-10.9058,148.07181,50.926004)" fill="#575756"/>
<use data-text="l" xlink:href="#font_4_79" transform="matrix(10.9058,0,0,-10.9058,150.74373,50.926004)" fill="#575756"/>
<use data-text="e" xlink:href="#font_4_72" transform="matrix(10.9058,0,0,-10.9058,153.41565,50.926004)" fill="#575756"/>
<use data-text="c" xlink:href="#font_4_70" transform="matrix(10.9058,0,0,-10.9058,159.53382,50.926004)" fill="#575756"/>
<use data-text="t" xlink:href="#font_4_87" transform="matrix(10.9058,0,0,-10.9058,165.3248,50.926004)" fill="#575756"/>
<use data-text="u" xlink:href="#font_4_88" transform="matrix(10.9058,0,0,-10.9058,169.08731,50.926004)" fill="#575756"/>
<use data-text="a" xlink:href="#font_4_68" transform="matrix(10.9058,0,0,-10.9058,175.25998,50.926004)" fill="#575756"/>
<use data-text="l" xlink:href="#font_4_79" transform="matrix(10.9058,0,0,-10.9058,181.45447,50.926004)" fill="#575756"/>
<use data-text=" " xlink:href="#font_4_3" transform="matrix(10.9058,0,0,-10.9058,184.1264,50.926004)" fill="#575756"/>
<use data-text="P" xlink:href="#font_4_51" transform="matrix(10.9058,0,0,-10.9058,187.34363,50.926004)" fill="#575756"/>
<use data-text="r" xlink:href="#font_4_85" transform="matrix(10.9058,0,0,-10.9058,193.6799,50.926004)" fill="#575756"/>
<use data-text="o" xlink:href="#font_4_82" transform="matrix(10.9058,0,0,-10.9058,197.41733,50.926004)" fill="#575756"/>
<use data-text="p" xlink:href="#font_4_83" transform="matrix(10.9058,0,0,-10.9058,203.7645,50.926004)" fill="#575756"/>
<use data-text="e" xlink:href="#font_4_72" transform="matrix(10.9058,0,0,-10.9058,210.2807,50.926004)" fill="#575756"/>
<use data-text="r" xlink:href="#font_4_85" transform="matrix(10.9058,0,0,-10.9058,216.39887,50.926004)" fill="#575756"/>
<use data-text="t" xlink:href="#font_4_87" transform="matrix(10.9058,0,0,-10.9058,220.59323,50.926004)" fill="#575756"/>
<use data-text="y" xlink:href="#font_4_92" transform="matrix(10.9058,0,0,-10.9058,224.60657,50.926004)" fill="#575756"/>
</g>
</g>
</svg>
